<?xml version="1.0" encoding="utf-8"?>
<!-- Svg Vector Icons : http://www.onlinewebfonts.com/icon -->
<!DOCTYPE svg PUBLIC "-//W3C//DTD SVG 1.1//EN" "http://www.w3.org/Graphics/SVG/1.1/DTD/svg11.dtd">
<svg version="1.1" xmlns="http://www.w3.org/2000/svg" xmlns:xlink="http://www.w3.org/1999/xlink" x="0px" y="0px" viewBox="0 0 1000 1000" enable-background="new 0 0 1000 1000" xml:space="preserve">
<metadata> Svg Vector Icons : http://www.onlinewebfonts.com/icon </metadata>
<g><path d="M990,576.2C990,804.7,770.6,990,500,990C229.4,990,10,804.7,10,576.2c0-55.4,13.1-108.2,36.5-156.4c0.5,0.2,1.1,0.3,1.5,0.5C37.4,382.6,8.7,266.3,30,177C62.2,41.8,162.4,10,162.4,10s50.1,2.3,107.1,39.9c32.4,21.4,54.8,44.9,67.5,60.1c33.9-12.7,101.9-34.7,169-34.7c63.4,0,125.7,21.3,157.4,34.1c12.7-15.2,35-38.4,67-59.5C787.4,12.3,837.6,10,837.6,10S937.8,41.8,970,177c17.9,75.1,0.4,190.3-11.9,253.7C978.4,476,990,524.9,990,576.2z M898,446.3c5.8-29.3,35-186.8,4.8-262C869.5,100.7,823,89.8,823,89.8s-49.2,10.5-72.6,29c-41.4,32.8-65.3,65.3-65.3,65.3s-87.8-43.6-177.9-43.6c-94.9,0-192.3,43.6-192.3,43.6s-24-32.5-65.3-65.3c-23.4-18.5-72.6-29-72.6-29s-46.4,10.9-79.9,94.4c-33.3,83.1,21.8,261.3,21.8,261.3l-11.4-2.2c-20.6,41-32.1,85.8-32.1,132.8c0,192.4,190.1,348.4,424.7,348.4c234.5,0,424.7-156,424.7-348.4c0-45.5-11-88.9-30.3-128.8C895.6,447,896.7,446.6,898,446.3z M609.1,794C555,794,521,768.8,500,740.5c-21,28.3-55,53.5-109.1,53.5c-98.6,0-141.3-87.1-141.3-87.1l43.6-43.6c0,0,40.4,65.3,101.4,65.3c58.7,0,72.8-65.3,72.8-65.3h65.3c0,0,14.1,65.3,72.8,65.3c61,0,101.4-65.3,101.4-65.3l43.6,43.6C750.4,706.9,707.7,794,609.1,794z"/></g>
</svg>